<?xml version="1.0" encoding="UTF-8" standalone="no"?><svg xmlns="http://www.w3.org/2000/svg" xmlns:xlink="http://www.w3.org/1999/xlink" contentScriptType="application/ecmascript" contentStyleType="text/css" height="1992px" preserveAspectRatio="none" style="width:743px;height:1992px;background:#F0F0F0;" version="1.1" viewBox="0 0 743 1992" width="743px" zoomAndPan="magnify"><defs><filter height="300%" id="fl9p5vpiw73ze" width="300%" x="-1" y="-1"><feGaussianBlur result="blurOut" stdDeviation="2.0"/><feColorMatrix in="blurOut" result="blurOut2" type="matrix" values="0 0 0 0 0 0 0 0 0 0 0 0 0 0 0 0 0 0 .4 0"/><feOffset dx="4.0" dy="4.0" in="blurOut2" result="blurOut3"/><feBlend in="SourceGraphic" in2="blurOut3" mode="normal"/></filter></defs><g><text fill="#000000" font-family="sans-serif" font-size="18" lengthAdjust="spacingAndGlyphs" textLength="187" x="277" y="26.708">新生児ギャン泣き対応フローチャート</text><ellipse cx="176.5" cy="40.9531" fill="#000000" filter="url(#fl9p5vpiw73ze)" rx="10" ry="10" style="stroke: none; stroke-width: 1.0;"/><rect fill="#F8F8F8" filter="url(#fl9p5vpiw73ze)" height="33.9688" rx="12.5" ry="12.5" style="stroke: #383838; stroke-width: 1.5;" width="34" x="159.5" y="70.9531"/><text fill="#000000" font-family="sans-serif" font-size="12" lengthAdjust="spacingAndGlyphs" textLength="14" x="169.5" y="92.0918">泣く</text><polygon fill="#F8F8F8" filter="url(#fl9p5vpiw73ze)" points="127.5,168.9219,225.5,168.9219,237.5,180.9219,225.5,192.9219,127.5,192.9219,115.5,180.9219,127.5,168.9219" style="stroke: #383838; stroke-width: 1.5;"/><text fill="#000000" font-family="sans-serif" font-size="11" lengthAdjust="spacingAndGlyphs" textLength="98" x="127.5" y="184.73">オムツ/服/寝具が汚れている?</text><text fill="#000000" font-family="sans-serif" font-size="11" lengthAdjust="spacingAndGlyphs" textLength="14" x="101.5" y="178.3276">はい</text><text fill="#000000" font-family="sans-serif" font-size="11" lengthAdjust="spacingAndGlyphs" textLength="21" x="237.5" y="178.3276">いいえ</text><rect fill="#F8F8F8" filter="url(#fl9p5vpiw73ze)" height="33.9688" rx="12.5" ry="12.5" style="stroke: #383838; stroke-width: 1.5;" width="98" x="10" y="202.9219"/><text fill="#000000" font-family="sans-serif" font-size="12" lengthAdjust="spacingAndGlyphs" textLength="78" x="20" y="224.0605">オムツ/服/寝具を替える</text><polygon fill="#F8F8F8" filter="url(#fl9p5vpiw73ze)" points="210.5,202.9219,377.5,202.9219,389.5,222.1289,377.5,241.3359,210.5,241.3359,198.5,222.1289,210.5,202.9219" style="stroke: #383838; stroke-width: 1.5;"/><text fill="#000000" font-family="sans-serif" font-size="11" lengthAdjust="spacingAndGlyphs" textLength="158" x="210.5" y="213.1323">前回の授乳/ミルクから2時間以上経過している、</text><text fill="#000000" font-family="sans-serif" font-size="11" lengthAdjust="spacingAndGlyphs" textLength="63" x="210.5" y="225.937">もしくは舌を出す、</text><text fill="#000000" font-family="sans-serif" font-size="11" lengthAdjust="spacingAndGlyphs" textLength="167" x="210.5" y="238.7417">乳房を探して首を振るなど空腹のサインが出ている?</text><text fill="#000000" font-family="sans-serif" font-size="11" lengthAdjust="spacingAndGlyphs" textLength="14" x="184.5" y="219.5347">はい</text><text fill="#000000" font-family="sans-serif" font-size="11" lengthAdjust="spacingAndGlyphs" textLength="21" x="389.5" y="219.5347">いいえ</text><rect fill="#F8F8F8" filter="url(#fl9p5vpiw73ze)" height="33.9688" rx="12.5" ry="12.5" style="stroke: #383838; stroke-width: 1.5;" width="87" x="138" y="251.3359"/><text fill="#000000" font-family="sans-serif" font-size="12" lengthAdjust="spacingAndGlyphs" textLength="67" x="148" y="272.4746">授乳/ミルクを与える</text><rect fill="#F8F8F8" filter="url(#fl9p5vpiw73ze)" height="33.9688" rx="12.5" ry="12.5" style="stroke: #383838; stroke-width: 1.5;" width="90" x="361.5" y="301.3477"/><text fill="#000000" font-family="sans-serif" font-size="12" lengthAdjust="spacingAndGlyphs" textLength="70" x="371.5" y="322.4863">げっぷを出させてみる</text><rect fill="#F8F8F8" filter="url(#fl9p5vpiw73ze)" height="33.9688" rx="12.5" ry="12.5" style="stroke: #383838; stroke-width: 1.5;" width="153" x="330" y="403.7188"/><text fill="#000000" font-family="sans-serif" font-size="12" lengthAdjust="spacingAndGlyphs" textLength="133" x="340" y="424.8574">腹部マッサージや肛門刺激でうんちを促す</text><polygon fill="#F8F8F8" filter="url(#fl9p5vpiw73ze)" points="389.5,355.3164,423.5,355.3164,435.5,367.3164,423.5,379.3164,389.5,379.3164,377.5,367.3164,389.5,355.3164" style="stroke: #383838; stroke-width: 1.5;"/><text fill="#000000" font-family="sans-serif" font-size="11" lengthAdjust="spacingAndGlyphs" textLength="14" x="410.5" y="389.5269">はい</text><text fill="#000000" font-family="sans-serif" font-size="11" lengthAdjust="spacingAndGlyphs" textLength="34" x="389.5" y="371.1245">便秘気味?</text><text fill="#000000" font-family="sans-serif" font-size="11" lengthAdjust="spacingAndGlyphs" textLength="21" x="435.5" y="364.7222">いいえ</text><polygon fill="#F8F8F8" filter="url(#fl9p5vpiw73ze)" points="406.5,457.6875,418.5,469.6875,406.5,481.6875,394.5,469.6875,406.5,457.6875" style="stroke: #383838; stroke-width: 1.5;"/><polygon fill="#F8F8F8" filter="url(#fl9p5vpiw73ze)" points="333.5,251.3359,479.5,251.3359,491.5,264.1406,479.5,276.9453,333.5,276.9453,321.5,264.1406,333.5,251.3359" style="stroke: #383838; stroke-width: 1.5;"/><text fill="#000000" font-family="sans-serif" font-size="11" lengthAdjust="spacingAndGlyphs" textLength="14" x="410.5" y="287.1558">はい</text><text fill="#000000" font-family="sans-serif" font-size="11" lengthAdjust="spacingAndGlyphs" textLength="146" x="333.5" y="261.5464">いきみやうなりがある、太鼓腹になっている?</text><text fill="#000000" font-family="sans-serif" font-size="11" lengthAdjust="spacingAndGlyphs" textLength="125" x="333.5" y="274.3511">顎を引き気道を確保しようとしている?</text><text fill="#000000" font-family="sans-serif" font-size="11" lengthAdjust="spacingAndGlyphs" textLength="21" x="491.5" y="261.5464">いいえ</text><polygon fill="#F8F8F8" filter="url(#fl9p5vpiw73ze)" points="406.5,501.6875,418.5,513.6875,406.5,525.6875,394.5,513.6875,406.5,501.6875" style="stroke: #383838; stroke-width: 1.5;"/><rect fill="#F8F8F8" filter="url(#fl9p5vpiw73ze)" height="33.9688" rx="12.5" ry="12.5" style="stroke: #383838; stroke-width: 1.5;" width="83" x="365" y="594.0898"/><text fill="#000000" font-family="sans-serif" font-size="12" lengthAdjust="spacingAndGlyphs" textLength="63" x="375" y="615.2285">おしゃぶりを与える</text><polygon fill="#F8F8F8" filter="url(#fl9p5vpiw73ze)" points="361.5,545.6875,451.5,545.6875,463.5,557.6875,451.5,569.6875,361.5,569.6875,349.5,557.6875,361.5,545.6875" style="stroke: #383838; stroke-width: 1.5;"/><text fill="#000000" font-family="sans-serif" font-size="11" lengthAdjust="spacingAndGlyphs" textLength="14" x="410.5" y="579.8979">はい</text><text fill="#000000" font-family="sans-serif" font-size="11" lengthAdjust="spacingAndGlyphs" textLength="90" x="361.5" y="561.4956">口をちゅぱちゅぱしている?</text><text fill="#000000" font-family="sans-serif" font-size="11" lengthAdjust="spacingAndGlyphs" textLength="21" x="463.5" y="555.0933">いいえ</text><polygon fill="#F8F8F8" filter="url(#fl9p5vpiw73ze)" points="406.5,648.0586,418.5,660.0586,406.5,672.0586,394.5,660.0586,406.5,648.0586" style="stroke: #383838; stroke-width: 1.5;"/><rect fill="#F8F8F8" filter="url(#fl9p5vpiw73ze)" height="33.9688" rx="12.5" ry="12.5" style="stroke: #383838; stroke-width: 1.5;" width="139" x="337" y="692.0586"/><text fill="#000000" font-family="sans-serif" font-size="12" lengthAdjust="spacingAndGlyphs" textLength="119" x="347" y="713.1973">服やオムツを窮屈でないように整える</text><rect fill="#F8F8F8" filter="url(#fl9p5vpiw73ze)" height="33.9688" rx="12.5" ry="12.5" style="stroke: #383838; stroke-width: 1.5;" width="237" x="288" y="746.0273"/><text fill="#000000" font-family="sans-serif" font-size="12" lengthAdjust="spacingAndGlyphs" textLength="217" x="298" y="767.166">鼻詰まり、髪や糸が身体の一部分に強く巻き付いていないかチェック</text><rect fill="#F8F8F8" filter="url(#fl9p5vpiw73ze)" height="33.9688" rx="12.5" ry="12.5" style="stroke: #383838; stroke-width: 1.5;" width="174" x="319.5" y="799.9961"/><text fill="#000000" font-family="sans-serif" font-size="12" lengthAdjust="spacingAndGlyphs" textLength="154" x="329.5" y="821.1348">頭、腹、足などを優しく掻いたりマッサージする</text><rect fill="#F8F8F8" filter="url(#fl9p5vpiw73ze)" height="33.9688" rx="12.5" ry="12.5" style="stroke: #383838; stroke-width: 1.5;" width="163" x="325" y="853.9648"/><text fill="#000000" font-family="sans-serif" font-size="12" lengthAdjust="spacingAndGlyphs" textLength="143" x="335" y="875.1035">ラトル(ガラガラ)を振って首や目線を動かす</text><rect fill="#F8F8F8" filter="url(#fl9p5vpiw73ze)" height="47.9375" rx="12.5" ry="12.5" style="stroke: #383838; stroke-width: 1.5;" width="212" x="300.5" y="907.9336"/><text fill="#000000" font-family="sans-serif" font-size="12" lengthAdjust="spacingAndGlyphs" textLength="192" x="310.5" y="929.0723">気温(冬20~23度、夏26~28度が適温)に応じて</text><text fill="#000000" font-family="sans-serif" font-size="12" lengthAdjust="spacingAndGlyphs" textLength="124" x="310.5" y="943.041">服を1枚脱がす/着せる。湿度を上げる</text><rect fill="#F8F8F8" filter="url(#fl9p5vpiw73ze)" height="33.9688" rx="12.5" ry="12.5" style="stroke: #383838; stroke-width: 1.5;" width="142" x="335.5" y="975.8711"/><text fill="#000000" font-family="sans-serif" font-size="12" lengthAdjust="spacingAndGlyphs" textLength="122" x="345.5" y="997.0098">(まだ使用していなければ)布でくるむ</text><rect fill="#F8F8F8" filter="url(#fl9p5vpiw73ze)" height="47.9375" rx="12.5" ry="12.5" style="stroke: #383838; stroke-width: 1.5;" width="107" x="353" y="1092.6563"/><text fill="#000000" font-family="sans-serif" font-size="12" lengthAdjust="spacingAndGlyphs" textLength="56" x="363" y="1113.7949">小児救急電話相談</text><text fill="#000000" font-family="sans-serif" font-size="12" lengthAdjust="spacingAndGlyphs" textLength="87" x="363" y="1127.7637">(#8000をプッシュ)</text><polygon fill="#F8F8F8" filter="url(#fl9p5vpiw73ze)" points="337,1029.8398,476,1029.8398,488,1049.0469,476,1068.2539,337,1068.2539,325,1049.0469,337,1029.8398" style="stroke: #383838; stroke-width: 1.5;"/><text fill="#000000" font-family="sans-serif" font-size="11" lengthAdjust="spacingAndGlyphs" textLength="14" x="410.5" y="1078.4644">はい</text><text fill="#000000" font-family="sans-serif" font-size="11" lengthAdjust="spacingAndGlyphs" textLength="139" x="337" y="1040.0503">体温が38.0度以上or36.0度未満で、</text><text fill="#000000" font-family="sans-serif" font-size="11" lengthAdjust="spacingAndGlyphs" textLength="125" x="337" y="1052.855">衣服の枚数を変えても平熱に戻らない?</text><text fill="#000000" font-family="sans-serif" font-size="11" lengthAdjust="spacingAndGlyphs" textLength="111" x="337" y="1065.6597">連続した嘔吐があったり呼吸が変?</text><text fill="#000000" font-family="sans-serif" font-size="11" lengthAdjust="spacingAndGlyphs" textLength="21" x="488" y="1046.4526">いいえ</text><polygon fill="#F8F8F8" filter="url(#fl9p5vpiw73ze)" points="382.5,1182.5938,430.5,1182.5938,442.5,1194.5938,430.5,1206.5938,382.5,1206.5938,370.5,1194.5938,382.5,1182.5938" style="stroke: #383838; stroke-width: 1.5;"/><text fill="#000000" font-family="sans-serif" font-size="11" lengthAdjust="spacingAndGlyphs" textLength="48" x="382.5" y="1198.4019">抱っこしてる?</text><text fill="#000000" font-family="sans-serif" font-size="11" lengthAdjust="spacingAndGlyphs" textLength="21" x="349.5" y="1191.9995">いいえ</text><text fill="#000000" font-family="sans-serif" font-size="11" lengthAdjust="spacingAndGlyphs" textLength="14" x="442.5" y="1191.9995">はい</text><rect fill="#F8F8F8" filter="url(#fl9p5vpiw73ze)" height="33.9688" rx="12.5" ry="12.5" style="stroke: #383838; stroke-width: 1.5;" width="69" x="255" y="1216.5938"/><text fill="#000000" font-family="sans-serif" font-size="12" lengthAdjust="spacingAndGlyphs" textLength="49" x="265" y="1237.7324">抱っこしてみる</text><rect fill="#F8F8F8" filter="url(#fl9p5vpiw73ze)" height="75.875" rx="12.5" ry="12.5" style="stroke: #383838; stroke-width: 1.5;" width="148" x="449.5" y="1216.5938"/><text fill="#000000" font-family="sans-serif" font-size="12" lengthAdjust="spacingAndGlyphs" textLength="128" x="459.5" y="1237.7324">5分歩いて5~8分座る(輸送反応)。</text><text fill="#000000" font-family="sans-serif" font-size="12" lengthAdjust="spacingAndGlyphs" textLength="77" x="459.5" y="1251.7012">トントンしたり揺らす。</text><text fill="#000000" font-family="sans-serif" font-size="12" lengthAdjust="spacingAndGlyphs" textLength="126" x="459.5" y="1265.6699">早足で足踏み・スクワット・反復横跳び</text><text fill="#000000" font-family="sans-serif" font-size="12" lengthAdjust="spacingAndGlyphs" textLength="105" x="459.5" y="1279.6387">高い高い、低い低い等をしてみる</text><rect fill="#F8F8F8" filter="url(#fl9p5vpiw73ze)" height="33.9688" rx="12.5" ry="12.5" style="stroke: #383838; stroke-width: 1.5;" width="156" x="445.5" y="1312.4688"/><text fill="#000000" font-family="sans-serif" font-size="12" lengthAdjust="spacingAndGlyphs" textLength="136" x="455.5" y="1333.6074">抱っこの向き(縦・横)、角度を変えてみる</text><rect fill="#F8F8F8" filter="url(#fl9p5vpiw73ze)" height="89.8438" rx="12.5" ry="12.5" style="stroke: #383838; stroke-width: 1.5;" width="359" x="344" y="1366.4375"/><text fill="#000000" font-family="sans-serif" font-size="12" lengthAdjust="spacingAndGlyphs" textLength="175" x="354" y="1387.5762">ホワイトノイズ、胎内音、雨音、心音、ドライヤー音、</text><text fill="#000000" font-family="sans-serif" font-size="12" lengthAdjust="spacingAndGlyphs" textLength="339" x="354" y="1401.5449">掃除機音、換気扇音、車のエンジン音(VTECサウンド、HONDA SOUND SITTER)、</text><text fill="#000000" font-family="sans-serif" font-size="12" lengthAdjust="spacingAndGlyphs" textLength="256" x="354" y="1415.5137">タケモトピアノのCM, 出前館のCM, ポイズン, カフカくん、狂言・詩吟、</text><text fill="#000000" font-family="sans-serif" font-size="12" lengthAdjust="spacingAndGlyphs" textLength="235" x="358" y="1429.4824">トントントマトちゃん、7回攻撃前の野球応援音(ジェット風船音)などを</text><text fill="#000000" font-family="sans-serif" font-size="12" lengthAdjust="spacingAndGlyphs" textLength="157" x="354" y="1443.4512">Youtubeやスマートスピーカーで聞かせる</text><rect fill="#F8F8F8" filter="url(#fl9p5vpiw73ze)" height="47.9375" rx="12.5" ry="12.5" style="stroke: #383838; stroke-width: 1.5;" width="151" x="448" y="1476.2813"/><text fill="#000000" font-family="sans-serif" font-size="12" lengthAdjust="spacingAndGlyphs" textLength="131" x="458" y="1497.4199">子守唄(ことりのうた、ゆりかごのうた、</text><text fill="#000000" font-family="sans-serif" font-size="12" lengthAdjust="spacingAndGlyphs" textLength="110" x="458" y="1511.3887">シューベルトの子守唄など)を歌う</text><rect fill="#F8F8F8" filter="url(#fl9p5vpiw73ze)" height="33.9688" rx="12.5" ry="12.5" style="stroke: #383838; stroke-width: 1.5;" width="118" x="464.5" y="1544.2188"/><text fill="#000000" font-family="sans-serif" font-size="12" lengthAdjust="spacingAndGlyphs" textLength="98" x="474.5" y="1565.3574">ビニール袋をかしゃかしゃする</text><rect fill="#F8F8F8" filter="url(#fl9p5vpiw73ze)" height="33.9688" rx="12.5" ry="12.5" style="stroke: #383838; stroke-width: 1.5;" width="132" x="457.5" y="1598.1875"/><text fill="#000000" font-family="sans-serif" font-size="12" lengthAdjust="spacingAndGlyphs" textLength="112" x="467.5" y="1619.3262">顔に息をふきかける、うちわで扇ぐ</text><rect fill="#F8F8F8" filter="url(#fl9p5vpiw73ze)" height="33.9688" rx="12.5" ry="12.5" style="stroke: #383838; stroke-width: 1.5;" width="48" x="499.5" y="1652.1563"/><text fill="#000000" font-family="sans-serif" font-size="12" lengthAdjust="spacingAndGlyphs" textLength="28" x="509.5" y="1673.2949">手を握る</text><rect fill="#F8F8F8" filter="url(#fl9p5vpiw73ze)" height="33.9688" rx="12.5" ry="12.5" style="stroke: #383838; stroke-width: 1.5;" width="76" x="485.5" y="1706.125"/><text fill="#000000" font-family="sans-serif" font-size="12" lengthAdjust="spacingAndGlyphs" textLength="56" x="495.5" y="1727.2637">自分が深呼吸する</text><rect fill="#F8F8F8" filter="url(#fl9p5vpiw73ze)" height="33.9688" rx="12.5" ry="12.5" style="stroke: #383838; stroke-width: 1.5;" width="79" x="484" y="1760.0938"/><text fill="#000000" font-family="sans-serif" font-size="12" lengthAdjust="spacingAndGlyphs" textLength="59" x="494" y="1781.2324">300秒放置する</text><polygon fill="#F8F8F8" filter="url(#fl9p5vpiw73ze)" points="406.5,1800.0625,418.5,1812.0625,406.5,1824.0625,394.5,1812.0625,406.5,1800.0625" style="stroke: #383838; stroke-width: 1.5;"/><polygon fill="#F8F8F8" filter="url(#fl9p5vpiw73ze)" points="294,1830.0625,306,1842.0625,294,1854.0625,282,1842.0625,294,1830.0625" style="stroke: #383838; stroke-width: 1.5;"/><polygon fill="#F8F8F8" filter="url(#fl9p5vpiw73ze)" points="176.5,1860.0625,188.5,1872.0625,176.5,1884.0625,164.5,1872.0625,176.5,1860.0625" style="stroke: #383838; stroke-width: 1.5;"/><polygon fill="#F8F8F8" filter="url(#fl9p5vpiw73ze)" points="176.5,124.9219,188.5,136.9219,176.5,148.9219,164.5,136.9219,176.5,124.9219" style="stroke: #383838; stroke-width: 1.5;"/><polygon fill="#F8F8F8" filter="url(#fl9p5vpiw73ze)" points="156,1904.0625,197,1904.0625,209,1916.0625,197,1928.0625,156,1928.0625,144,1916.0625,156,1904.0625" style="stroke: #383838; stroke-width: 1.5;"/><text fill="#000000" font-family="sans-serif" font-size="11" lengthAdjust="spacingAndGlyphs" textLength="14" x="180.5" y="1938.2729">はい</text><text fill="#000000" font-family="sans-serif" font-size="11" lengthAdjust="spacingAndGlyphs" textLength="41" x="156" y="1919.8706">泣き止んだ?</text><text fill="#000000" font-family="sans-serif" font-size="11" lengthAdjust="spacingAndGlyphs" textLength="21" x="209" y="1913.4683">いいえ</text><ellipse cx="176.5" cy="1970.7729" fill="#FFFFFF" filter="url(#fl9p5vpiw73ze)" rx="11" ry="11" style="stroke: #000000; stroke-width: 1.0;"/><ellipse cx="176.5" cy="1970.7729" fill="#000000" rx="6" ry="6" style="stroke: #7F7F7F; stroke-width: 1.0;"/><line style="stroke: #383838; stroke-width: 1.5;" x1="176.5" x2="176.5" y1="50.9531" y2="70.9531"/><polygon fill="#383838" points="172.5,60.9531,176.5,70.9531,180.5,60.9531,176.5,64.9531" style="stroke: #383838; stroke-width: 1.0;"/><line style="stroke: #383838; stroke-width: 1.5;" x1="406.5" x2="406.5" y1="379.3164" y2="403.7188"/><polygon fill="#383838" points="402.5,393.7188,406.5,403.7188,410.5,393.7188,406.5,397.7188" style="stroke: #383838; stroke-width: 1.0;"/><line style="stroke: #383838; stroke-width: 1.5;" x1="435.5" x2="493" y1="367.3164" y2="367.3164"/><polygon fill="#383838" points="489,410.7031,493,420.7031,497,410.7031,493,414.7031" style="stroke: #383838; stroke-width: 1.5;"/><line style="stroke: #383838; stroke-width: 1.5;" x1="493" x2="493" y1="367.3164" y2="469.6875"/><line style="stroke: #383838; stroke-width: 1.5;" x1="493" x2="418.5" y1="469.6875" y2="469.6875"/><polygon fill="#383838" points="428.5,465.6875,418.5,469.6875,428.5,473.6875,424.5,469.6875" style="stroke: #383838; stroke-width: 1.0;"/><line style="stroke: #383838; stroke-width: 1.5;" x1="406.5" x2="406.5" y1="437.6875" y2="457.6875"/><polygon fill="#383838" points="402.5,447.6875,406.5,457.6875,410.5,447.6875,406.5,451.6875" style="stroke: #383838; stroke-width: 1.0;"/><line style="stroke: #383838; stroke-width: 1.5;" x1="406.5" x2="406.5" y1="335.3164" y2="355.3164"/><polygon fill="#383838" points="402.5,345.3164,406.5,355.3164,410.5,345.3164,406.5,349.3164" style="stroke: #383838; stroke-width: 1.0;"/><line style="stroke: #383838; stroke-width: 1.5;" x1="406.5" x2="406.5" y1="276.9453" y2="301.3477"/><polygon fill="#383838" points="402.5,291.3477,406.5,301.3477,410.5,291.3477,406.5,295.3477" style="stroke: #383838; stroke-width: 1.0;"/><line style="stroke: #383838; stroke-width: 1.5;" x1="491.5" x2="515" y1="264.1406" y2="264.1406"/><polygon fill="#383838" points="511,375.8164,515,385.8164,519,375.8164,515,379.8164" style="stroke: #383838; stroke-width: 1.5;"/><line style="stroke: #383838; stroke-width: 1.5;" x1="515" x2="515" y1="264.1406" y2="513.6875"/><line style="stroke: #383838; stroke-width: 1.5;" x1="515" x2="418.5" y1="513.6875" y2="513.6875"/><polygon fill="#383838" points="428.5,509.6875,418.5,513.6875,428.5,517.6875,424.5,513.6875" style="stroke: #383838; stroke-width: 1.0;"/><line style="stroke: #383838; stroke-width: 1.5;" x1="406.5" x2="406.5" y1="481.6875" y2="501.6875"/><polygon fill="#383838" points="402.5,491.6875,406.5,501.6875,410.5,491.6875,406.5,495.6875" style="stroke: #383838; stroke-width: 1.0;"/><line style="stroke: #383838; stroke-width: 1.5;" x1="406.5" x2="406.5" y1="569.6875" y2="594.0898"/><polygon fill="#383838" points="402.5,584.0898,406.5,594.0898,410.5,584.0898,406.5,588.0898" style="stroke: #383838; stroke-width: 1.0;"/><line style="stroke: #383838; stroke-width: 1.5;" x1="463.5" x2="475.5" y1="557.6875" y2="557.6875"/><polygon fill="#383838" points="471.5,601.0742,475.5,611.0742,479.5,601.0742,475.5,605.0742" style="stroke: #383838; stroke-width: 1.5;"/><line style="stroke: #383838; stroke-width: 1.5;" x1="475.5" x2="475.5" y1="557.6875" y2="660.0586"/><line style="stroke: #383838; stroke-width: 1.5;" x1="475.5" x2="418.5" y1="660.0586" y2="660.0586"/><polygon fill="#383838" points="428.5,656.0586,418.5,660.0586,428.5,664.0586,424.5,660.0586" style="stroke: #383838; stroke-width: 1.0;"/><line style="stroke: #383838; stroke-width: 1.5;" x1="406.5" x2="406.5" y1="628.0586" y2="648.0586"/><polygon fill="#383838" points="402.5,638.0586,406.5,648.0586,410.5,638.0586,406.5,642.0586" style="stroke: #383838; stroke-width: 1.0;"/><line style="stroke: #383838; stroke-width: 1.5;" x1="406.5" x2="406.5" y1="525.6875" y2="545.6875"/><polygon fill="#383838" points="402.5,535.6875,406.5,545.6875,410.5,535.6875,406.5,539.6875" style="stroke: #383838; stroke-width: 1.0;"/><line style="stroke: #383838; stroke-width: 1.5;" x1="406.5" x2="406.5" y1="672.0586" y2="692.0586"/><polygon fill="#383838" points="402.5,682.0586,406.5,692.0586,410.5,682.0586,406.5,686.0586" style="stroke: #383838; stroke-width: 1.0;"/><line style="stroke: #383838; stroke-width: 1.5;" x1="406.5" x2="406.5" y1="726.0273" y2="746.0273"/><polygon fill="#383838" points="402.5,736.0273,406.5,746.0273,410.5,736.0273,406.5,740.0273" style="stroke: #383838; stroke-width: 1.0;"/><line style="stroke: #383838; stroke-width: 1.5;" x1="406.5" x2="406.5" y1="779.9961" y2="799.9961"/><polygon fill="#383838" points="402.5,789.9961,406.5,799.9961,410.5,789.9961,406.5,793.9961" style="stroke: #383838; stroke-width: 1.0;"/><line style="stroke: #383838; stroke-width: 1.5;" x1="406.5" x2="406.5" y1="833.9648" y2="853.9648"/><polygon fill="#383838" points="402.5,843.9648,406.5,853.9648,410.5,843.9648,406.5,847.9648" style="stroke: #383838; stroke-width: 1.0;"/><line style="stroke: #383838; stroke-width: 1.5;" x1="406.5" x2="406.5" y1="887.9336" y2="907.9336"/><polygon fill="#383838" points="402.5,897.9336,406.5,907.9336,410.5,897.9336,406.5,901.9336" style="stroke: #383838; stroke-width: 1.0;"/><line style="stroke: #383838; stroke-width: 1.5;" x1="406.5" x2="406.5" y1="955.8711" y2="975.8711"/><polygon fill="#383838" points="402.5,965.8711,406.5,975.8711,410.5,965.8711,406.5,969.8711" style="stroke: #383838; stroke-width: 1.0;"/><line style="stroke: #383838; stroke-width: 1.5;" x1="406.5" x2="406.5" y1="1068.2539" y2="1092.6563"/><polygon fill="#383838" points="402.5,1082.6563,406.5,1092.6563,410.5,1082.6563,406.5,1086.6563" style="stroke: #383838; stroke-width: 1.0;"/><line style="stroke: #383838; stroke-width: 1.5;" x1="488" x2="500" y1="1049.0469" y2="1049.0469"/><polygon fill="#383838" points="496,1100.0215,500,1110.0215,504,1100.0215,500,1104.0215" style="stroke: #383838; stroke-width: 1.5;"/><line style="stroke: #383838; stroke-width: 1.5;" x1="500" x2="500" y1="1049.0469" y2="1162.5938"/><line style="stroke: #383838; stroke-width: 1.5;" x1="500" x2="406.5" y1="1162.5938" y2="1162.5938"/><line style="stroke: #383838; stroke-width: 1.5;" x1="406.5" x2="406.5" y1="1162.5938" y2="1182.5938"/><polygon fill="#383838" points="402.5,1172.5938,406.5,1182.5938,410.5,1172.5938,406.5,1176.5938" style="stroke: #383838; stroke-width: 1.0;"/><line style="stroke: #383838; stroke-width: 1.5;" x1="406.5" x2="406.5" y1="1009.8398" y2="1029.8398"/><polygon fill="#383838" points="402.5,1019.8398,406.5,1029.8398,410.5,1019.8398,406.5,1023.8398" style="stroke: #383838; stroke-width: 1.0;"/><line style="stroke: #383838; stroke-width: 1.5;" x1="523.5" x2="523.5" y1="1292.4688" y2="1312.4688"/><polygon fill="#383838" points="519.5,1302.4688,523.5,1312.4688,527.5,1302.4688,523.5,1306.4688" style="stroke: #383838; stroke-width: 1.0;"/><line style="stroke: #383838; stroke-width: 1.5;" x1="523.5" x2="523.5" y1="1346.4375" y2="1366.4375"/><polygon fill="#383838" points="519.5,1356.4375,523.5,1366.4375,527.5,1356.4375,523.5,1360.4375" style="stroke: #383838; stroke-width: 1.0;"/><line style="stroke: #383838; stroke-width: 1.5;" x1="523.5" x2="523.5" y1="1456.2813" y2="1476.2813"/><polygon fill="#383838" points="519.5,1466.2813,523.5,1476.2813,527.5,1466.2813,523.5,1470.2813" style="stroke: #383838; stroke-width: 1.0;"/><line style="stroke: #383838; stroke-width: 1.5;" x1="523.5" x2="523.5" y1="1524.2188" y2="1544.2188"/><polygon fill="#383838" points="519.5,1534.2188,523.5,1544.2188,527.5,1534.2188,523.5,1538.2188" style="stroke: #383838; stroke-width: 1.0;"/><line style="stroke: #383838; stroke-width: 1.5;" x1="523.5" x2="523.5" y1="1578.1875" y2="1598.1875"/><polygon fill="#383838" points="519.5,1588.1875,523.5,1598.1875,527.5,1588.1875,523.5,1592.1875" style="stroke: #383838; stroke-width: 1.0;"/><line style="stroke: #383838; stroke-width: 1.5;" x1="523.5" x2="523.5" y1="1632.1563" y2="1652.1563"/><polygon fill="#383838" points="519.5,1642.1563,523.5,1652.1563,527.5,1642.1563,523.5,1646.1563" style="stroke: #383838; stroke-width: 1.0;"/><line style="stroke: #383838; stroke-width: 1.5;" x1="523.5" x2="523.5" y1="1686.125" y2="1706.125"/><polygon fill="#383838" points="519.5,1696.125,523.5,1706.125,527.5,1696.125,523.5,1700.125" style="stroke: #383838; stroke-width: 1.0;"/><line style="stroke: #383838; stroke-width: 1.5;" x1="523.5" x2="523.5" y1="1740.0938" y2="1760.0938"/><polygon fill="#383838" points="519.5,1750.0938,523.5,1760.0938,527.5,1750.0938,523.5,1754.0938" style="stroke: #383838; stroke-width: 1.0;"/><line style="stroke: #383838; stroke-width: 1.5;" x1="370.5" x2="289.5" y1="1194.5938" y2="1194.5938"/><line style="stroke: #383838; stroke-width: 1.5;" x1="289.5" x2="289.5" y1="1194.5938" y2="1216.5938"/><polygon fill="#383838" points="285.5,1206.5938,289.5,1216.5938,293.5,1206.5938,289.5,1210.5938" style="stroke: #383838; stroke-width: 1.0;"/><line style="stroke: #383838; stroke-width: 1.5;" x1="442.5" x2="523.5" y1="1194.5938" y2="1194.5938"/><line style="stroke: #383838; stroke-width: 1.5;" x1="523.5" x2="523.5" y1="1194.5938" y2="1216.5938"/><polygon fill="#383838" points="519.5,1206.5938,523.5,1216.5938,527.5,1206.5938,523.5,1210.5938" style="stroke: #383838; stroke-width: 1.0;"/><line style="stroke: #383838; stroke-width: 1.5;" x1="289.5" x2="289.5" y1="1250.5625" y2="1812.0625"/><line style="stroke: #383838; stroke-width: 1.5;" x1="289.5" x2="394.5" y1="1812.0625" y2="1812.0625"/><polygon fill="#383838" points="384.5,1808.0625,394.5,1812.0625,384.5,1816.0625,388.5,1812.0625" style="stroke: #383838; stroke-width: 1.0;"/><line style="stroke: #383838; stroke-width: 1.5;" x1="523.5" x2="523.5" y1="1794.0625" y2="1812.0625"/><line style="stroke: #383838; stroke-width: 1.5;" x1="523.5" x2="418.5" y1="1812.0625" y2="1812.0625"/><polygon fill="#383838" points="428.5,1808.0625,418.5,1812.0625,428.5,1816.0625,424.5,1812.0625" style="stroke: #383838; stroke-width: 1.0;"/><line style="stroke: #383838; stroke-width: 1.5;" x1="198.5" x2="181.5" y1="222.1289" y2="222.1289"/><line style="stroke: #383838; stroke-width: 1.5;" x1="181.5" x2="181.5" y1="222.1289" y2="251.3359"/><polygon fill="#383838" points="177.5,241.3359,181.5,251.3359,185.5,241.3359,181.5,245.3359" style="stroke: #383838; stroke-width: 1.0;"/><line style="stroke: #383838; stroke-width: 1.5;" x1="389.5" x2="406.5" y1="222.1289" y2="222.1289"/><line style="stroke: #383838; stroke-width: 1.5;" x1="406.5" x2="406.5" y1="222.1289" y2="251.3359"/><polygon fill="#383838" points="402.5,241.3359,406.5,251.3359,410.5,241.3359,406.5,245.3359" style="stroke: #383838; stroke-width: 1.0;"/><line style="stroke: #383838; stroke-width: 1.5;" x1="181.5" x2="181.5" y1="285.3047" y2="1842.0625"/><line style="stroke: #383838; stroke-width: 1.5;" x1="181.5" x2="282" y1="1842.0625" y2="1842.0625"/><polygon fill="#383838" points="272,1838.0625,282,1842.0625,272,1846.0625,276,1842.0625" style="stroke: #383838; stroke-width: 1.0;"/><line style="stroke: #383838; stroke-width: 1.5;" x1="406.5" x2="406.5" y1="1824.0625" y2="1842.0625"/><line style="stroke: #383838; stroke-width: 1.5;" x1="406.5" x2="306" y1="1842.0625" y2="1842.0625"/><polygon fill="#383838" points="316,1838.0625,306,1842.0625,316,1846.0625,312,1842.0625" style="stroke: #383838; stroke-width: 1.0;"/><line style="stroke: #383838; stroke-width: 1.5;" x1="115.5" x2="59" y1="180.9219" y2="180.9219"/><line style="stroke: #383838; stroke-width: 1.5;" x1="59" x2="59" y1="180.9219" y2="202.9219"/><polygon fill="#383838" points="55,192.9219,59,202.9219,63,192.9219,59,196.9219" style="stroke: #383838; stroke-width: 1.0;"/><line style="stroke: #383838; stroke-width: 1.5;" x1="237.5" x2="294" y1="180.9219" y2="180.9219"/><line style="stroke: #383838; stroke-width: 1.5;" x1="294" x2="294" y1="180.9219" y2="202.9219"/><polygon fill="#383838" points="290,192.9219,294,202.9219,298,192.9219,294,196.9219" style="stroke: #383838; stroke-width: 1.0;"/><line style="stroke: #383838; stroke-width: 1.5;" x1="59" x2="59" y1="236.8906" y2="1872.0625"/><line style="stroke: #383838; stroke-width: 1.5;" x1="59" x2="164.5" y1="1872.0625" y2="1872.0625"/><polygon fill="#383838" points="154.5,1868.0625,164.5,1872.0625,154.5,1876.0625,158.5,1872.0625" style="stroke: #383838; stroke-width: 1.0;"/><line style="stroke: #383838; stroke-width: 1.5;" x1="294" x2="294" y1="1854.0625" y2="1872.0625"/><line style="stroke: #383838; stroke-width: 1.5;" x1="294" x2="188.5" y1="1872.0625" y2="1872.0625"/><polygon fill="#383838" points="198.5,1868.0625,188.5,1872.0625,198.5,1876.0625,194.5,1872.0625" style="stroke: #383838; stroke-width: 1.0;"/><line style="stroke: #383838; stroke-width: 1.5;" x1="176.5" x2="176.5" y1="148.9219" y2="168.9219"/><polygon fill="#383838" points="172.5,158.9219,176.5,168.9219,180.5,158.9219,176.5,162.9219" style="stroke: #383838; stroke-width: 1.0;"/><line style="stroke: #383838; stroke-width: 1.5;" x1="209" x2="717" y1="1916.0625" y2="1916.0625"/><polygon fill="#383838" points="713,1034.0898,717,1024.0898,721,1034.0898,717,1030.0898" style="stroke: #383838; stroke-width: 1.5;"/><line style="stroke: #383838; stroke-width: 1.5;" x1="717" x2="717" y1="136.9219" y2="1916.0625"/><line style="stroke: #383838; stroke-width: 1.5;" x1="717" x2="188.5" y1="136.9219" y2="136.9219"/><polygon fill="#383838" points="198.5,132.9219,188.5,136.9219,198.5,140.9219,194.5,136.9219" style="stroke: #383838; stroke-width: 1.0;"/><line style="stroke: #383838; stroke-width: 1.5;" x1="176.5" x2="176.5" y1="1884.0625" y2="1904.0625"/><polygon fill="#383838" points="172.5,1894.0625,176.5,1904.0625,180.5,1894.0625,176.5,1898.0625" style="stroke: #383838; stroke-width: 1.0;"/><line style="stroke: #383838; stroke-width: 1.5;" x1="176.5" x2="176.5" y1="104.9219" y2="124.9219"/><polygon fill="#383838" points="172.5,114.9219,176.5,124.9219,180.5,114.9219,176.5,118.9219" style="stroke: #383838; stroke-width: 1.0;"/><line style="stroke: #383838; stroke-width: 1.5;" x1="176.5" x2="176.5" y1="1928.0625" y2="1959.7729"/><polygon fill="#383838" points="172.5,1949.7729,176.5,1959.7729,180.5,1949.7729,176.5,1953.7729" style="stroke: #383838; stroke-width: 1.0;"/><!--MD5=[945285b300a896b7dcea632843085421]
@startuml
skinparam backgroundColor #f0f0f0
skinparam monochrome true
title 新生児ギャン泣き対応フローチャート
start

:泣く;

repeat;
  if (オムツ/服/寝具が汚れている?) then (はい)
    :オムツ/服/寝具を替える;
  else (いいえ)
    if (前回の授乳/ミルクから2時間以上経過している、\nもしくは舌を出す、\n乳房を探して首を振るなど空腹のサインが出ている?) then (はい)
      :授乳/ミルクを与える;
    else (いいえ)
      if (いきみやうなりがある、太鼓腹になっている?\n顎を引き気道を確保しようとしている?) then (はい)
        :げっぷを出させてみる;
        if (便秘気味?) then (はい)
          :腹部マッサージや肛門刺激でうんちを促す;
        else (いいえ)
        endif
      else (いいえ)
      endif
      if (口をちゅぱちゅぱしている?) then (はい)
        :おしゃぶりを与える;
      else (いいえ)
      endif
      :服やオムツを窮屈でないように整える;
      :鼻詰まり、髪や糸が身体の一部分に強く巻き付いていないかチェック;
      :頭、腹、足などを優しく掻いたりマッサージする;
      :ラトル(ガラガラ)を振って首や目線を動かす;
      :気温(冬20~23度、夏26~28度が適温)に応じて\n服を1枚脱がす/着せる。湿度を上げる;
      :(まだ使用していなければ)布でくるむ;
      if (体温が38.0度以上or36.0度未満で、\n衣服の枚数を変えても平熱に戻らない?\n連続した嘔吐があったり呼吸が変?) then (はい)
        :小児救急電話相談\n(#8000をプッシュ);
        kill
      else (いいえ)
      endif
      if (抱っこしてる?) then (いいえ)
        :抱っこしてみる;
      else (はい)
        :5分歩いて5~8分座る(輸送反応)。\nトントンしたり揺らす。\n早足で足踏み・スクワット・反復横跳び\n高い高い、低い低い等をしてみる;
        :抱っこの向き(縦・横)、角度を変えてみる;
        :ホワイトノイズ、胎内音、雨音、心音、ドライヤー音、\n掃除機音、換気扇音、車のエンジン音(VTECサウンド、HONDA SOUND SITTER)、\nタケモトピアノのCM, 出前館のCM, ポイズン, カフカくん、狂言・詩吟、 \n トントントマトちゃん、7回攻撃前の野球応援音(ジェット風船音)などを\nYoutubeやスマートスピーカーで聞かせる;
        :子守唄(ことりのうた、ゆりかごのうた、\nシューベルトの子守唄など)を歌う;
        :ビニール袋をかしゃかしゃする;
        :顔に息をふきかける、うちわで扇ぐ;
        :手を握る;
        :自分が深呼吸する;
        :300秒放置する;
      endif
    endif
  endif
repeat while (泣き止んだ?) is (いいえ) not (はい)

stop

@enduml

PlantUML version 1.2020.02(Sun Mar 01 10:22:07 UTC 2020)
(GPL source distribution)
Java Runtime: OpenJDK Runtime Environment
JVM: OpenJDK 64-Bit Server VM
Java Version: 11.0.22+7
Operating System: Linux
Default Encoding: UTF-8
Language: en
Country: null
--></g></svg>