<?xml version="1.0" encoding="UTF-8" standalone="no"?><svg xmlns="http://www.w3.org/2000/svg" xmlns:xlink="http://www.w3.org/1999/xlink" contentScriptType="application/ecmascript" contentStyleType="text/css" height="311px" preserveAspectRatio="none" style="width:277px;height:311px;background:#F0F0F0;" version="1.1" viewBox="0 0 277 311" width="277px" zoomAndPan="magnify"><defs><filter height="300%" id="f1vjxl8zl31umz" width="300%" x="-1" y="-1"><feGaussianBlur result="blurOut" stdDeviation="2.0"/><feColorMatrix in="blurOut" result="blurOut2" type="matrix" values="0 0 0 0 0 0 0 0 0 0 0 0 0 0 0 0 0 0 .4 0"/><feOffset dx="4.0" dy="4.0" in="blurOut2" result="blurOut3"/><feBlend in="SourceGraphic" in2="blurOut3" mode="normal"/></filter></defs><g><text fill="#000000" font-family="sans-serif" font-size="18" lengthAdjust="spacingAndGlyphs" textLength="253" x="12" y="26.708">コナンくん用新生児ギャン泣き対応フローチャート</text><ellipse cx="125.5" cy="40.9531" fill="#000000" filter="url(#f1vjxl8zl31umz)" rx="10" ry="10" style="stroke: none; stroke-width: 1.0;"/><rect fill="#F8F8F8" filter="url(#f1vjxl8zl31umz)" height="33.9688" rx="12.5" ry="12.5" style="stroke: #383838; stroke-width: 1.5;" width="34" x="108.5" y="70.9531"/><text fill="#000000" font-family="sans-serif" font-size="12" lengthAdjust="spacingAndGlyphs" textLength="14" x="118.5" y="92.0918">泣く</text><rect fill="#F8F8F8" filter="url(#f1vjxl8zl31umz)" height="33.9688" rx="12.5" ry="12.5" style="stroke: #383838; stroke-width: 1.5;" width="90" x="80.5" y="168.9219"/><text fill="#000000" font-family="sans-serif" font-size="12" lengthAdjust="spacingAndGlyphs" textLength="70" x="90.5" y="190.0605">腕時計型麻酔銃を打つ</text><polygon fill="#F8F8F8" filter="url(#f1vjxl8zl31umz)" points="125.5,124.9219,137.5,136.9219,125.5,148.9219,113.5,136.9219,125.5,124.9219" style="stroke: #383838; stroke-width: 1.5;"/><polygon fill="#F8F8F8" filter="url(#f1vjxl8zl31umz)" points="105,222.8906,146,222.8906,158,234.8906,146,246.8906,105,246.8906,93,234.8906,105,222.8906" style="stroke: #383838; stroke-width: 1.5;"/><text fill="#000000" font-family="sans-serif" font-size="11" lengthAdjust="spacingAndGlyphs" textLength="14" x="129.5" y="257.1011">はい</text><text fill="#000000" font-family="sans-serif" font-size="11" lengthAdjust="spacingAndGlyphs" textLength="41" x="105" y="238.6987">泣き止んだ?</text><text fill="#000000" font-family="sans-serif" font-size="11" lengthAdjust="spacingAndGlyphs" textLength="21" x="158" y="232.2964">いいえ</text><ellipse cx="125.5" cy="289.6011" fill="#FFFFFF" filter="url(#f1vjxl8zl31umz)" rx="11" ry="11" style="stroke: #000000; stroke-width: 1.0;"/><ellipse cx="125.5" cy="289.6011" fill="#000000" rx="6" ry="6" style="stroke: #7F7F7F; stroke-width: 1.0;"/><line style="stroke: #383838; stroke-width: 1.5;" x1="125.5" x2="125.5" y1="50.9531" y2="70.9531"/><polygon fill="#383838" points="121.5,60.9531,125.5,70.9531,129.5,60.9531,125.5,64.9531" style="stroke: #383838; stroke-width: 1.0;"/><line style="stroke: #383838; stroke-width: 1.5;" x1="125.5" x2="125.5" y1="148.9219" y2="168.9219"/><polygon fill="#383838" points="121.5,158.9219,125.5,168.9219,129.5,158.9219,125.5,162.9219" style="stroke: #383838; stroke-width: 1.0;"/><line style="stroke: #383838; stroke-width: 1.5;" x1="158" x2="182.5" y1="234.8906" y2="234.8906"/><polygon fill="#383838" points="178.5,195.9063,182.5,185.9063,186.5,195.9063,182.5,191.9063" style="stroke: #383838; stroke-width: 1.5;"/><line style="stroke: #383838; stroke-width: 1.5;" x1="182.5" x2="182.5" y1="136.9219" y2="234.8906"/><line style="stroke: #383838; stroke-width: 1.5;" x1="182.5" x2="137.5" y1="136.9219" y2="136.9219"/><polygon fill="#383838" points="147.5,132.9219,137.5,136.9219,147.5,140.9219,143.5,136.9219" style="stroke: #383838; stroke-width: 1.0;"/><line style="stroke: #383838; stroke-width: 1.5;" x1="125.5" x2="125.5" y1="202.8906" y2="222.8906"/><polygon fill="#383838" points="121.5,212.8906,125.5,222.8906,129.5,212.8906,125.5,216.8906" style="stroke: #383838; stroke-width: 1.0;"/><line style="stroke: #383838; stroke-width: 1.5;" x1="125.5" x2="125.5" y1="104.9219" y2="124.9219"/><polygon fill="#383838" points="121.5,114.9219,125.5,124.9219,129.5,114.9219,125.5,118.9219" style="stroke: #383838; stroke-width: 1.0;"/><line style="stroke: #383838; stroke-width: 1.5;" x1="125.5" x2="125.5" y1="246.8906" y2="278.6011"/><polygon fill="#383838" points="121.5,268.6011,125.5,278.6011,129.5,268.6011,125.5,272.6011" style="stroke: #383838; stroke-width: 1.0;"/><!--MD5=[fbde2afc789c2c11fa40301097c8f13a]
@startuml
skinparam backgroundColor #f0f0f0
skinparam monochrome true
title コナンくん用新生児ギャン泣き対応フローチャート
start

:泣く;

repeat;
  :腕時計型麻酔銃を打つ;
repeat while (泣き止んだ?) is (いいえ) not (はい)

stop

@enduml

PlantUML version 1.2020.02(Sun Mar 01 10:22:07 UTC 2020)
(GPL source distribution)
Java Runtime: OpenJDK Runtime Environment
JVM: OpenJDK 64-Bit Server VM
Java Version: 11.0.22+7
Operating System: Linux
Default Encoding: UTF-8
Language: en
Country: null
--></g></svg>